<?xml version="1.0" encoding="UTF-8" standalone="no"?>
<!-- Created with Inkscape (http://www.inkscape.org/) -->

<svg
   xmlns:dc="http://purl.org/dc/elements/1.1/"
   xmlns:cc="http://creativecommons.org/ns#"
   xmlns:rdf="http://www.w3.org/1999/02/22-rdf-syntax-ns#"
   xmlns:svg="http://www.w3.org/2000/svg"
   xmlns="http://www.w3.org/2000/svg"
   xmlns:sodipodi="http://sodipodi.sourceforge.net/DTD/sodipodi-0.dtd"
   xmlns:inkscape="http://www.inkscape.org/namespaces/inkscape"
   width="13.472238mm"
   height="9.3759365mm"
   viewBox="0 0 13.472238 9.3759368"
   version="1.1"
   id="svg844"
   inkscape:version="0.92.4 (5da689c313, 2019-01-14)"
   sodipodi:docname="left.svg">
  <defs
     id="defs838" />
  <sodipodi:namedview
     id="base"
     pagecolor="#ffffff"
     bordercolor="#666666"
     borderopacity="1.0"
     inkscape:pageopacity="0.0"
     inkscape:pageshadow="2"
     inkscape:zoom="0.35"
     inkscape:cx="-30.472959"
     inkscape:cy="554.35128"
     inkscape:document-units="mm"
     inkscape:current-layer="layer1"
     showgrid="false"
     inkscape:window-width="958"
     inkscape:window-height="1018"
     inkscape:window-x="953"
     inkscape:window-y="0"
     inkscape:window-maximized="0" />
  <metadata
     id="metadata841">
    <rdf:RDF>
      <cc:Work
         rdf:about="">
        <dc:format>image/svg+xml</dc:format>
        <dc:type
           rdf:resource="http://purl.org/dc/dcmitype/StillImage" />
        <dc:title></dc:title>
      </cc:Work>
    </rdf:RDF>
  </metadata>
  <g
     inkscape:label="Layer 1"
     inkscape:groupmode="layer"
     id="layer1"
     transform="translate(-135.83436,-286.1295)">
    <g
       transform="matrix(0.26458333,0,0,0.26458333,230.34586,75.446637)"
       id="g32">
      <path
         style="fill:#e6e6e6"
         inkscape:connector-curvature="0"
         id="path28"
         d="m -307.5,816.9 c 1.4,-2 1.2,-2.9 1.2,-2.9 0,0 0.2,-0.9 -1.2,-2.9 -1.4,-2 -15,-13.6 -15.7,-14 -0.7,-0.4 -28.5,-2.2 -31.4,1.3 -2.9,3.5 -2.6,15.6 -2.6,15.6 0,0 -0.3,12.1 2.6,15.6 2.9,3.5 30.7,1.7 31.4,1.3 0.7,-0.4 14.3,-12 15.7,-14 z" />
      <path
         style="opacity:0.25;fill:#ffffff"
         inkscape:connector-curvature="0"
         id="path30"
         d="m -307.5,816.9 c 1.4,-2 1.2,-2.9 1.2,-2.9 0,0 0.2,-0.9 -1.2,-2.9 -0.9,-1.3 -6.9,-6.6 -11.2,-10.3 -2.1,3.9 -3.4,8.4 -3.4,13.2 0,4.8 1.2,9.3 3.4,13.2 4.3,-3.7 10.3,-9 11.2,-10.3 z"
         enable-background="new    " />
    </g>
  </g>
</svg>
