<?xml version="1.0" encoding="UTF-8" standalone="no"?>
<svg
   xmlns:dc="http://purl.org/dc/elements/1.1/"
   xmlns:cc="http://creativecommons.org/ns#"
   xmlns:rdf="http://www.w3.org/1999/02/22-rdf-syntax-ns#"
   xmlns:svg="http://www.w3.org/2000/svg"
   xmlns="http://www.w3.org/2000/svg"
   xmlns:sodipodi="http://sodipodi.sourceforge.net/DTD/sodipodi-0.dtd"
   xmlns:inkscape="http://www.inkscape.org/namespaces/inkscape"
   xml:space="preserve"
   viewBox="-816 494 94 94"
   height="94"
   width="94"
   y="0px"
   x="0px"
   id="Layer_1"
   version="1.1"
   sodipodi:docname="left_stick.svg"
   inkscape:version="0.92.4 (5da689c313, 2019-01-14)"><sodipodi:namedview
   pagecolor="#ffffff"
   bordercolor="#666666"
   borderopacity="1"
   objecttolerance="10"
   gridtolerance="10"
   guidetolerance="10"
   inkscape:pageopacity="0"
   inkscape:pageshadow="2"
   inkscape:window-width="958"
   inkscape:window-height="1018"
   id="namedview27"
   showgrid="false"
   inkscape:zoom="1.0979021"
   inkscape:cx="47"
   inkscape:cy="47"
   inkscape:window-x="-7"
   inkscape:window-y="0"
   inkscape:window-maximized="0"
   inkscape:current-layer="Layer_1" /><metadata
   id="metadata51"><rdf:RDF><cc:Work
       rdf:about=""><dc:format>image/svg+xml</dc:format><dc:type
         rdf:resource="http://purl.org/dc/dcmitype/StillImage" /><dc:title></dc:title></cc:Work></rdf:RDF></metadata><defs
   id="defs49" />
<style
   id="style2"
   type="text/css">
	.st0{fill:#0F0F0F;}
	.st1{fill:#121212;}
	.st2{fill:#141414;}
	.st3{fill:#F0F0F0;}
	.st4{fill:#EDEDED;}
	.st5{fill:#EBEBEB;}
</style>


<g
   id="g44"
   transform="translate(-96)">
	<g
   id="g34">
		<path
   id="path30"
   d="m -673,586.5 c -25.1,0 -45.5,-20.4 -45.5,-45.5 0,-25.1 20.4,-45.5 45.5,-45.5 25.1,0 45.5,20.4 45.5,45.5 0,25.1 -20.4,45.5 -45.5,45.5 z"
   class="st3"
   inkscape:connector-curvature="0"
   style="fill:#f0f0f0" />
		<path
   id="path32"
   d="m -673,497 c 24.3,0 44,19.7 44,44 0,24.3 -19.7,44 -44,44 -24.3,0 -44,-19.7 -44,-44 0,-24.3 19.7,-44 44,-44 m 0,-3 c -26,0 -47,21 -47,47 0,26 21,47 47,47 26,0 47,-21 47,-47 0,-26 -21,-47 -47,-47 z"
   class="st4"
   inkscape:connector-curvature="0"
   style="fill:#ededed" />
	</g>
	<circle
   id="circle36"
   r="27.299999"
   cy="541"
   cx="-673"
   class="st5"
   style="fill:#ebebeb" />
	<g
   id="g42">
		<path
   id="path38"
   d="m -690.9,527.5 h 4.6 v 22.4 h 13.4 v 4 h -18 c 0,0 0,-26.4 0,-26.4 z"
   inkscape:connector-curvature="0" />
		<path
   id="path40"
   d="m -664.1,538.8 c 2.8,0.1 5.7,-0.9 5.7,-4.1 0,-2.2 -1.7,-3.7 -4,-3.7 -2.9,0 -4.4,2.6 -4.3,5.3 h -4.2 c 0.2,-5 3.4,-8.8 8.6,-8.8 4,0 8.2,2.3 8.2,6.9 0,2.6 -1.1,4.7 -3.7,5.5 v 0.1 c 3,0.6 4.7,3.1 4.7,6.5 0,4.9 -4.3,7.9 -9.2,7.9 -6,0 -9,-3.6 -9.1,-9 h 4.2 c -0.1,3.1 1.6,5.5 4.9,5.5 2.8,0 5,-1.7 5,-4.6 0,-4 -3.4,-4.5 -6.8,-4.4 z"
   inkscape:connector-curvature="0" />
	</g>
</g>
</svg>