<?xml version="1.0" encoding="UTF-8" standalone="no"?>
<svg
   xmlns:dc="http://purl.org/dc/elements/1.1/"
   xmlns:cc="http://creativecommons.org/ns#"
   xmlns:rdf="http://www.w3.org/1999/02/22-rdf-syntax-ns#"
   xmlns:svg="http://www.w3.org/2000/svg"
   xmlns="http://www.w3.org/2000/svg"
   version="1.1"
   id="Layer_1"
   x="0px"
   y="0px"
   width="94"
   height="94"
   viewBox="-816 494 94 94"
   xml:space="preserve"><metadata
   id="metadata258"><rdf:RDF><cc:Work
       rdf:about=""><dc:format>image/svg+xml</dc:format><dc:type
         rdf:resource="http://purl.org/dc/dcmitype/StillImage" /><dc:title></dc:title></cc:Work></rdf:RDF></metadata><defs
   id="defs256" />
<style
   type="text/css"
   id="style209">
	.st0{fill:#0F0F0F;}
	.st1{fill:#121212;}
	.st2{fill:#141414;}
	.st3{fill:#F0F0F0;}
	.st4{fill:#EDEDED;}
	.st5{fill:#EBEBEB;}
</style>
<g
   id="g219">
	<g
   id="g215">
		<path
   class="st0"
   d="m -769,586.5 c -25.1,0 -45.5,-20.4 -45.5,-45.5 0,-25.1 20.4,-45.5 45.5,-45.5 25.1,0 45.5,20.4 45.5,45.5 0,25.1 -20.4,45.5 -45.5,45.5 z"
   id="path211" />
		<path
   class="st1"
   d="m -769,497 c 24.3,0 44,19.7 44,44 0,24.3 -19.7,44 -44,44 -24.3,0 -44,-19.7 -44,-44 0,-24.3 19.7,-44 44,-44 m 0,-3 c -26,0 -47,21 -47,47 0,26 21,47 47,47 26,0 47,-21 47,-47 0,-26 -21,-47 -47,-47 z"
   id="path213" />
	</g>
	<circle
   class="st2"
   cx="-769"
   cy="541"
   r="27.299999"
   id="circle217" />
</g>


</svg>
