<?xml version="1.0" encoding="UTF-8" standalone="no"?>
<!-- Created with Inkscape (http://www.inkscape.org/) -->

<svg
   xmlns:dc="http://purl.org/dc/elements/1.1/"
   xmlns:cc="http://creativecommons.org/ns#"
   xmlns:rdf="http://www.w3.org/1999/02/22-rdf-syntax-ns#"
   xmlns:svg="http://www.w3.org/2000/svg"
   xmlns="http://www.w3.org/2000/svg"
   xmlns:sodipodi="http://sodipodi.sourceforge.net/DTD/sodipodi-0.dtd"
   xmlns:inkscape="http://www.inkscape.org/namespaces/inkscape"
   width="14.419791mm"
   height="14.419791mm"
   viewBox="0 0 14.419791 14.419791"
   version="1.1"
   id="svg843"
   inkscape:version="0.92.4 (5da689c313, 2019-01-14)"
   sodipodi:docname="o_button.svg">
  <defs
     id="defs837" />
  <sodipodi:namedview
     id="base"
     pagecolor="#ffffff"
     bordercolor="#666666"
     borderopacity="1.0"
     inkscape:pageopacity="0.0"
     inkscape:pageshadow="2"
     inkscape:zoom="0.35"
     inkscape:cx="-334.17859"
     inkscape:cy="367.24998"
     inkscape:document-units="mm"
     inkscape:current-layer="layer1"
     showgrid="false"
     inkscape:window-width="958"
     inkscape:window-height="1018"
     inkscape:window-x="953"
     inkscape:window-y="0"
     inkscape:window-maximized="0" />
  <metadata
     id="metadata840">
    <rdf:RDF>
      <cc:Work
         rdf:about="">
        <dc:format>image/svg+xml</dc:format>
        <dc:type
           rdf:resource="http://purl.org/dc/dcmitype/StillImage" />
        <dc:title></dc:title>
      </cc:Work>
    </rdf:RDF>
  </metadata>
  <g
     inkscape:label="Layer 1"
     inkscape:groupmode="layer"
     id="layer1"
     transform="translate(-71.409155,-231.58177)">
    <g
       transform="matrix(0.26458333,0,0,0.26458333,107.52478,126.14531)"
       id="g10">
      <g
         id="g6">
        <path
           style="fill:#e6e6e6"
           inkscape:connector-curvature="0"
           id="path2"
           d="m -109.2,452 c -14.5,0 -26.3,-11.8 -26.3,-26.3 0,-14.5 11.8,-26.2 26.3,-26.2 14.5,0 26.2,11.8 26.2,26.3 0,14.5 -11.8,26.2 -26.2,26.2 z" />
        <path
           style="fill:#f0f0f0"
           inkscape:connector-curvature="0"
           id="path4"
           d="m -109.2,400.5 c 13.9,0 25.3,11.3 25.3,25.2 0,13.9 -11.3,25.3 -25.3,25.3 -14,0 -25.3,-11.3 -25.3,-25.2 0,-13.9 11.3,-25.3 25.3,-25.3 m 0,-2 c -15,0 -27.3,12.2 -27.3,27.2 0,15 12.2,27.3 27.3,27.3 15.1,0 27.2,-12.2 27.2,-27.2 0,-15 -12.2,-27.3 -27.2,-27.3 z" />
      </g>
      <path
         style="fill:#009898"
         inkscape:connector-curvature="0"
         id="path8"
         d="m -109.2,406.9 c -10.4,0 -18.9,8.5 -18.9,18.9 0,10.4 8.5,18.9 18.9,18.9 10.4,0 18.9,-8.5 18.9,-18.9 -0.1,-10.5 -8.5,-18.9 -18.9,-18.9 z m 0,34.9 c -8.9,0 -16,-7.2 -16,-16 0,-8.9 7.2,-16 16,-16 8.8,0 16,7.2 16,16 0,8.8 -7.2,16 -16,16 z" />
    </g>
  </g>
</svg>
