<?xml version="1.0" encoding="UTF-8" standalone="no"?>
<!-- Created with Inkscape (http://www.inkscape.org/) -->

<svg
   xmlns:dc="http://purl.org/dc/elements/1.1/"
   xmlns:cc="http://creativecommons.org/ns#"
   xmlns:rdf="http://www.w3.org/1999/02/22-rdf-syntax-ns#"
   xmlns:svg="http://www.w3.org/2000/svg"
   xmlns="http://www.w3.org/2000/svg"
   xmlns:sodipodi="http://sodipodi.sourceforge.net/DTD/sodipodi-0.dtd"
   xmlns:inkscape="http://www.inkscape.org/namespaces/inkscape"
   width="14.44625mm"
   height="14.419791mm"
   viewBox="0 0 14.44625 14.419791"
   version="1.1"
   id="svg1408"
   inkscape:version="0.92.4 (5da689c313, 2019-01-14)"
   sodipodi:docname="square_button.svg">
  <defs
     id="defs1402" />
  <sodipodi:namedview
     id="base"
     pagecolor="#ffffff"
     bordercolor="#666666"
     borderopacity="1.0"
     inkscape:pageopacity="0.0"
     inkscape:pageshadow="2"
     inkscape:zoom="0.35"
     inkscape:cx="-482.69999"
     inkscape:cy="435.82142"
     inkscape:document-units="mm"
     inkscape:current-layer="layer1"
     showgrid="false"
     inkscape:window-width="958"
     inkscape:window-height="1018"
     inkscape:window-x="953"
     inkscape:window-y="0"
     inkscape:window-maximized="0" />
  <metadata
     id="metadata1405">
    <rdf:RDF>
      <cc:Work
         rdf:about="">
        <dc:format>image/svg+xml</dc:format>
        <dc:type
           rdf:resource="http://purl.org/dc/dcmitype/StillImage" />
        <dc:title></dc:title>
      </cc:Work>
    </rdf:RDF>
  </metadata>
  <g
     inkscape:label="Layer 1"
     inkscape:groupmode="layer"
     id="layer1"
     transform="translate(-110.70544,-249.72463)">
    <g
       transform="matrix(0.26458333,0,0,0.26458333,131.87211,144.28817)"
       id="g30">
      <g
         id="g26">
        <path
           style="fill:#e6e6e6"
           inkscape:connector-curvature="0"
           id="path22"
           d="m -52.7,452 c -14.5,0 -26.2,-11.8 -26.2,-26.3 0,-14.5 11.8,-26.2 26.2,-26.2 14.4,0 26.3,11.8 26.3,26.2 0,14.4 -11.9,26.3 -26.3,26.3 z" />
        <path
           style="fill:#f0f0f0"
           inkscape:connector-curvature="0"
           id="path24"
           d="m -52.7,400.5 c 13.9,0 25.3,11.3 25.3,25.2 0,13.9 -11.3,25.3 -25.3,25.3 -14,0 -25.3,-11.3 -25.3,-25.2 0,-13.9 11.3,-25.3 25.3,-25.3 m 0,-2 c -15,0 -27.3,12.2 -27.3,27.2 0,15 12.2,27.3 27.3,27.3 15.1,0 27.3,-12.2 27.3,-27.3 0,-15.1 -12.3,-27.2 -27.3,-27.2 z" />
      </g>
      <path
         style="fill:#079647"
         inkscape:connector-curvature="0"
         id="path28"
         d="m -41.2,411.4 h -23 -2.8 v 2.8 23 2.8 h 2.8 23 2.8 v -2.8 -23 -2.8 z m 0,25.9 h -23 v -23 h 23 z" />
    </g>
  </g>
</svg>
