<?xml version="1.0" encoding="UTF-8" standalone="no"?>
<!-- Created with Inkscape (http://www.inkscape.org/) -->

<svg
   xmlns:dc="http://purl.org/dc/elements/1.1/"
   xmlns:cc="http://creativecommons.org/ns#"
   xmlns:rdf="http://www.w3.org/1999/02/22-rdf-syntax-ns#"
   xmlns:svg="http://www.w3.org/2000/svg"
   xmlns="http://www.w3.org/2000/svg"
   xmlns:sodipodi="http://sodipodi.sourceforge.net/DTD/sodipodi-0.dtd"
   xmlns:inkscape="http://www.inkscape.org/namespaces/inkscape"
   width="14.44625mm"
   height="14.44625mm"
   viewBox="0 0 14.44625 14.44625"
   version="1.1"
   id="svg8"
   inkscape:version="0.92.4 (5da689c313, 2019-01-14)"
   sodipodi:docname="x_button.svg">
  <defs
     id="defs2" />
  <sodipodi:namedview
     id="base"
     pagecolor="#ffffff"
     bordercolor="#666666"
     borderopacity="1.0"
     inkscape:pageopacity="0.0"
     inkscape:pageshadow="2"
     inkscape:zoom="5.6"
     inkscape:cx="31.303279"
     inkscape:cy="27.729468"
     inkscape:document-units="mm"
     inkscape:current-layer="layer1"
     showgrid="false"
     inkscape:window-width="1920"
     inkscape:window-height="1027"
     inkscape:window-x="-8"
     inkscape:window-y="-8"
     inkscape:window-maximized="1" />
  <metadata
     id="metadata5">
    <rdf:RDF>
      <cc:Work
         rdf:about="">
        <dc:format>image/svg+xml</dc:format>
        <dc:type
           rdf:resource="http://purl.org/dc/dcmitype/StillImage" />
        <dc:title></dc:title>
      </cc:Work>
    </rdf:RDF>
  </metadata>
  <g
     inkscape:label="Layer 1"
     inkscape:groupmode="layer"
     id="layer1"
     transform="translate(-70.639967,-232.3245)">
    <g
       transform="matrix(0.26458333,0,0,0.26458333,121.70455,126.88804)"
       id="g16">
      <path
         style="fill:#e6e6e6"
         inkscape:connector-curvature="0"
         id="path12"
         d="m -165.8,452 c -14.4,0 -26.2,-11.7 -26.2,-26.2 0,-14.5 11.8,-26.2 26.3,-26.2 14.5,0 26.3,11.8 26.3,26.2 0,14.4 -11.9,26.2 -26.4,26.2 z" />
      <path
         style="fill:#f0f0f0"
         inkscape:connector-curvature="0"
         id="path14"
         d="m -165.7,400.5 c 13.9,0 25.3,11.3 25.3,25.2 0,13.9 -11.3,25.3 -25.3,25.3 -14,0 -25.3,-11.3 -25.3,-25.2 0,-13.9 11.3,-25.3 25.3,-25.3 m 0,-2 c -15.1,0 -27.3,12.3 -27.3,27.3 0,15 12.2,27.3 27.3,27.3 15.1,0 27.3,-12.2 27.3,-27.3 -0.1,-15 -12.3,-27.3 -27.3,-27.3 z" />
    </g>
    <polygon
       transform="matrix(0.26458333,0,0,0.26458333,121.70455,126.88804)"
       style="fill:#824e20"
       id="polygon18"
       points="-180.1,438.1 -178.1,440.2 -165.7,427.8 -153.4,440.2 -151.4,438.1 -163.7,425.8 -151.4,413.4 -153.4,411.4 -165.7,423.8 -178.1,411.4 -180.1,413.4 -167.8,425.8 " />
  </g>
</svg>
